<!-- icon666.com - MILLIONS vector ICONS FREE -->
<svg version="1.1" id="Capa_1" xmlns="http://www.w3.org/2000/svg" xmlns:xlink="http://www.w3.org/1999/xlink" x="0px" y="0px" viewBox="0 0 402.869 402.869" style="enable-background:new 0 0 402.869 402.869;" xml:space="preserve">

<path style="fill: rgb(140, 43, 50);" d="M187.756,386.86c-79.569-14.429-115.183-69.774-130.457-107.368 c-9.871-24.297-13.644-50.765-10.536-76.804c4.377-36.676,20.279-61.807,37.023-78.551c25.261-25.261,60.823-37.582,96.403-34.395 c49.873,4.468,74.146,36.605,74.146,36.605c51.745,66.075,12.341,113.214,12.341,113.214s-33.854,41.813-83.1,22.599 c-50.41-19.67-28.532-62.2-28.532-62.2c12.229-22.232,29.75-24.254,40.534-22.938c2.489,0.304,3.637-3.009,1.509-4.337 c-8.246-5.146-22.153-9.76-39.035,0.681c-14.535,8.99-24.185,24.307-26.338,41.262c-2.73,21.498,3.544,52.805,53.004,73.211 c0,0,70.303,31.865,120.975-47.363c0,0,62.2-104.427-57.063-182.034c0,0-89.59-54.781-179.181,25.679 c0,0-67.906,58.205-54.211,153.501c0,0,4.625,46.955,37.662,87.879c0,0,53.395,64.059,134.495,65.043 c1.035,0.012,1.888-0.836,1.888-1.87l0,0C189.284,387.779,188.635,387.019,187.756,386.86z" fill="#FE5B67"></path>
<path style="fill: rgb(242, 239, 151);" d="M203.954,31.127c79.569,14.429,115.183,69.774,130.457,107.369 c9.871,24.296,13.645,50.764,10.535,76.803c-4.376,36.677-20.277,61.807-37.022,78.552c-25.261,25.26-60.822,37.581-96.403,34.395 c-49.872-4.469-74.146-36.605-74.146-36.605c-51.746-66.075-12.341-113.214-12.341-113.214s33.855-41.813,83.101-22.599 c50.41,19.67,28.532,62.2,28.532,62.2c-12.229,22.232-29.75,24.254-40.535,22.938c-2.49-0.304-3.637,3.009-1.509,4.337 c8.247,5.146,22.152,9.76,39.034-0.682c14.536-8.989,24.186-24.307,26.339-41.262c2.73-21.497-3.545-52.805-53.003-73.211 c0,0-70.305-31.865-120.977,47.363c0,0-62.2,104.427,57.064,182.033c0,0,89.59,54.781,179.181-25.678 c0,0,67.906-58.205,54.211-153.502c0,0-4.625-46.954-37.662-87.879c0,0-53.395-64.058-134.496-65.041 c-1.034-0.013-1.887,0.835-1.887,1.869l0,0C202.426,30.208,203.075,30.968,203.954,31.127z" fill="#4A6273"></path>
<g>
<circle style="" cx="177.936" cy="342.753" r="5.721" fill="#F2F2F2"></circle>
<circle style="" cx="91.486" cy="237.223" r="3.814" fill="#F2F2F2"></circle>
<circle style="" cx="142.336" cy="139.323" r="3.814" fill="#F2F2F2"></circle>
<circle style="" cx="169.676" cy="60.493" r="6.993" fill="#F2F2F2"></circle>
<circle style="" cx="281.566" cy="138.053" r="2.543" fill="#F2F2F2"></circle>
<circle style="" cx="317.796" cy="85.923" r="5.722" fill="#F2F2F2"></circle>
<circle style="" cx="26.636" cy="206.703" r="2.543" fill="#F2F2F2"></circle>
<circle style="" cx="294.276" cy="220.053" r="4.45" fill="#F2F2F2"></circle>
</g>
</svg>