<?xml version="1.0" standalone="no"?>
<!DOCTYPE svg PUBLIC "-//W3C//DTD SVG 20010904//EN"
 "http://www.w3.org/TR/2001/REC-SVG-20010904/DTD/svg10.dtd">
<svg version="1.0" xmlns="http://www.w3.org/2000/svg"
 width="700.000000pt" height="700.000000pt" viewBox="0 0 700.000000 700.000000"
 preserveAspectRatio="xMidYMid meet">
<metadata>
Created by potrace 1.14, written by Peter Selinger 2001-2017
</metadata>
<g transform="translate(0.000000,700.000000) scale(0.100000,-0.100000)"
fill="#000000" stroke="none">
<path d="M3543 6519 c-23 -8 -32 -43 -14 -54 8 -5 34 -10 141 -31 322 -63 748
-241 1008 -420 35 -24 67 -44 72 -44 4 0 10 -3 12 -7 2 -5 30 -28 63 -52 33
-25 62 -47 65 -50 3 -3 34 -30 70 -60 65 -54 214 -201 280 -276 251 -285 462
-639 601 -1012 37 -100 96 -299 105 -351 2 -15 9 -47 14 -72 35 -164 45 -278
45 -510 0 -236 -9 -345 -40 -504 -78 -391 -221 -706 -454 -1001 -30 -38 -105
-120 -165 -181 -313 -312 -693 -505 -1149 -581 -110 -18 -455 -25 -577 -11
-439 51 -863 251 -1154 545 -143 144 -328 438 -423 668 -77 187 -120 417 -117
620 2 162 21 275 68 417 89 265 220 432 470 601 108 74 304 166 383 181 11 3
38 9 59 15 110 31 359 35 494 7 254 -53 510 -191 636 -344 124 -151 175 -333
151 -542 -27 -224 -162 -444 -348 -563 -99 -63 -188 -89 -329 -94 -74 -3 -130
-10 -137 -17 -35 -33 27 -82 157 -126 416 -141 919 268 988 803 30 230 -18
457 -139 667 -8 14 -16 27 -19 30 -3 3 -19 25 -35 50 -52 77 -207 222 -318
298 -256 174 -527 283 -792 318 -114 16 -417 8 -485 -11 -8 -2 -26 -6 -40 -9
-222 -38 -495 -169 -700 -334 -168 -135 -380 -377 -488 -555 -101 -167 -202
-455 -246 -697 -33 -182 -39 -243 -41 -420 -5 -602 241 -1153 723 -1622 65
-63 166 -152 223 -197 57 -46 112 -89 122 -97 44 -36 207 -144 257 -171 177
-95 434 -183 675 -232 144 -29 199 -37 345 -47 156 -11 404 -6 487 10 11 3 43
7 70 11 290 39 624 158 938 334 86 49 296 194 400 277 553 444 961 1154 1080
1884 4 25 9 52 10 60 4 23 17 139 21 190 4 63 4 386 0 436 -7 67 -17 167 -21
194 -13 95 -19 126 -37 215 -110 547 -393 1112 -725 1448 -585 594 -1370 974
-2090 1013 -59 3 -112 7 -118 8 -5 2 -20 0 -32 -5z"/>
<path d="M2868 6295 c-1 -1 -34 -6 -73 -9 -38 -4 -83 -9 -100 -12 -16 -3 -39
-7 -50 -9 -191 -27 -471 -116 -685 -217 -351 -168 -724 -449 -969 -733 -142
-164 -316 -426 -426 -641 -111 -220 -228 -542 -259 -717 -3 -15 -7 -35 -10
-45 -8 -27 -17 -75 -36 -207 -38 -255 -32 -620 15 -905 3 -14 7 -42 10 -63 12
-73 64 -275 101 -387 115 -356 297 -707 502 -965 193 -243 586 -566 922 -757
271 -155 627 -296 863 -344 12 -2 33 -6 47 -9 37 -7 72 -14 100 -20 14 -3 48
-8 75 -11 28 -4 52 -8 55 -9 3 -2 48 -6 100 -10 52 -3 120 -8 151 -10 38 -3
62 0 75 10 45 33 -14 58 -268 110 -52 10 -251 76 -356 117 -116 45 -380 176
-452 225 -25 16 -72 47 -105 69 -107 69 -297 228 -408 340 -275 276 -499 611
-664 994 -63 146 -142 382 -160 480 -2 14 -8 43 -13 65 -16 75 -40 232 -46
316 -13 158 -8 444 10 549 3 14 7 43 10 65 4 34 25 144 40 210 21 100 78 273
121 375 121 282 254 480 465 690 139 139 152 151 260 228 140 101 313 192 485
257 104 39 327 99 405 109 144 18 190 21 340 21 91 0 192 -4 225 -8 113 -14
130 -17 155 -22 29 -6 65 -13 100 -20 78 -14 266 -79 380 -131 271 -123 510
-311 667 -524 281 -382 416 -750 414 -1130 0 -106 -6 -155 -36 -309 -22 -114
-119 -337 -186 -427 -161 -219 -472 -418 -753 -484 -172 -41 -365 -42 -521 -4
-33 8 -69 17 -79 19 -36 8 -161 58 -230 92 -312 152 -479 404 -461 697 2 45 7
92 10 106 3 14 8 40 11 59 35 182 203 406 371 493 104 54 173 71 301 74 61 2
117 6 122 9 18 11 11 53 -12 69 -37 26 -160 74 -208 81 -174 27 -322 -7 -481
-110 -224 -145 -375 -374 -435 -660 -10 -51 -14 -287 -4 -335 4 -25 11 -61 14
-80 15 -95 98 -277 172 -375 133 -179 342 -342 585 -458 172 -82 230 -103 357
-133 71 -17 80 -19 182 -33 68 -10 366 -7 435 4 277 45 520 152 760 333 70 53
273 254 331 327 21 28 42 52 45 55 3 3 36 48 72 100 150 218 260 510 321 851
2 15 7 53 11 85 4 33 9 75 11 94 5 46 6 327 0 365 -2 17 -7 59 -11 95 -3 36
-8 72 -10 80 -2 8 -7 31 -10 50 -3 19 -13 62 -22 95 -8 33 -16 65 -18 70 -45
196 -223 552 -360 724 -141 176 -255 298 -395 421 -47 41 -87 77 -90 81 -3 3
-23 18 -45 34 -22 17 -42 32 -45 35 -28 29 -248 178 -317 216 -170 91 -496
202 -703 238 -19 3 -46 8 -60 11 -25 6 -47 8 -190 24 -71 8 -434 13 -442 6z"/>
</g>
</svg>
